<svg xmlns="http://www.w3.org/2000/svg" width="1920.504" height="379.104" viewBox="0 0 1920.504 379.104"><defs><style>.a{fill:#4398a8;}.b,.c{fill:#57b8c6;}.b{opacity:0.3;}</style></defs><g transform="translate(0.483 -1781)"><path class="a" d="M-11.483,1847.763s119.143-19.738,263.8-22.1,197.89,6.724,303.31,22.1,328.839,39.616,399.479,39.2,346.6-13.968,458.461-25.732S1909,1727,1909,1727l.016,378.945-1920.5-1.893Z" transform="translate(11 54)"/><path class="b" d="M-11.04,1809.669s206.48,48.166,347.417,61.72,285.671,26.476,397.991,16.06,381.96-66.682,490.665-77.589,425.724,3.7,494.027,14.361,188.786,79.821,188.786,79.821l1.165,201.839-1919.94.222Z" transform="translate(11 54)"/><path class="c" d="M-4.428,1955.526s443.945-43.807,651.953-43.2,429.609,29.818,634.913,0,633.134-66.933,633.134-66.933V2160l-1919.987-.023v-3.565Z" transform="translate(4.428)"/></g></svg>