<svg xmlns="http://www.w3.org/2000/svg" width="1923.385" height="191.563" viewBox="0 0 1923.385 191.563"><defs><style>.a{fill:#4398a8;}.b{fill:#5abdca;}.c{fill:#57b8c6;opacity:0.53;}</style></defs><g transform="translate(1.811 1.303)"><path class="a" d="M-10.57,9.034.43,53.44S202.5,67.992,490.789,73.805,776.3,57.261,1002.4,45.988,1835.456-53.53,1835.456-53.53H-10.57Z" transform="translate(11 54)"/><path class="b" d="M64.413-61.919V69.033s488.125-58.9,968.728-43.744,953.684,104.355,953.684,104.355.473-41.006-.13-190.983Z" transform="translate(-66.224 60.617)"/><path class="c" d="M-11.533,36.538s-3.867-5.17,227.116,0,55.073,6.447,518.186,30.679,522.078,11.692,661.916,14.069,514.889-14.069,514.889-14.069v-122.5L-11.533-54.248Z" transform="translate(11 54)"/></g></svg>